<svg version="1.1" id="Layer_1" xmlns="http://www.w3.org/2000/svg" xmlns:xlink="http://www.w3.org/1999/xlink" x="0px" y="0px"
	 width="566.929px" height="2267.717px" viewBox="0 0 566.929 2267.717" enable-background="new 0 0 566.929 2267.717"
	 xml:space="preserve">
<g>
	<g>
		<path fill="#BFBFBF" d="M453.949,158.631c-14.774,6.554-30.655,10.981-47.318,12.973c17.006-10.196,30.072-26.342,36.225-45.582
			c-15.921,9.443-33.553,16.299-52.32,19.993c-15.027-16.013-36.44-26.017-60.137-26.017c-45.499,0-82.39,36.887-82.39,82.387
			c0,6.457,0.728,12.746,2.133,18.776c-68.472-3.436-129.182-36.237-169.816-86.083C73.233,147.247,69.17,161.4,69.17,176.5
			c0,28.584,14.545,53.802,36.653,68.576c-13.506-0.427-26.21-4.134-37.318-10.305c-0.008,0.343-0.008,0.687-0.008,1.037
			c0,39.917,28.399,73.215,66.09,80.786c-6.913,1.883-14.191,2.891-21.706,2.891c-5.309,0-10.47-0.518-15.502-1.479
			c10.485,32.731,40.912,56.553,76.964,57.214c-28.197,22.1-63.721,35.271-102.323,35.271c-6.65,0-13.208-0.391-19.654-1.152
			c36.461,23.376,79.769,37.018,126.294,37.018c151.543,0,234.416-125.542,234.416-234.417c0-3.571-0.083-7.124-0.24-10.658
			C428.937,189.664,442.904,175.154,453.949,158.631"/>
	</g>
</g>
<g>
	<g>
		<path fill="#BFBFBF" d="M453.949,724.938c-14.773,6.554-30.655,10.981-47.318,12.973c17.006-10.196,30.072-26.341,36.224-45.581
			c-15.92,9.443-33.552,16.298-52.319,19.992c-15.027-16.013-36.44-26.016-60.137-26.016c-45.5,0-82.39,36.887-82.39,82.386
			c0,6.458,0.729,12.746,2.133,18.777c9.542,36.013,6.734,62.591-4.111,79.785c-16.465,26.103-31.64,41.482-71.687,74.272
			c-28.197,22.1-63.721,35.271-102.322,35.271c-6.65,0-13.209-0.392-19.654-1.152c36.46,23.376,79.768,37.018,126.294,37.018
			c151.543,0,234.415-125.542,234.415-234.417c0-3.572-0.082-7.124-0.24-10.658C428.937,755.971,442.904,741.461,453.949,724.938"/>
	</g>
	<g opacity="0.55">
		<g>
			<path fill="#BFBFBF" d="M246.03,867.255c10.846-17.195,13.654-43.772,4.112-79.786c-68.472-3.435-129.182-36.237-169.816-86.083
				c-7.092,12.168-11.156,26.322-11.156,41.421c0,28.585,14.545,53.802,36.653,68.576c-13.506-0.428-26.21-4.134-37.318-10.305
				c-0.008,0.344-0.008,0.687-0.008,1.036c0,39.917,28.399,73.216,66.09,80.787c-6.913,1.883-14.191,2.891-21.706,2.891
				c-5.309,0-10.47-0.518-15.502-1.479c10.485,32.73,40.912,56.553,76.964,57.215C214.391,908.737,229.565,893.358,246.03,867.255z"
				/>
		</g>
	</g>
	<g opacity="0.25">
		<g>
			<path fill="#BFBFBF" d="M281.522,990.265c16.916,27.784,50.378,43.785,84.235,37.875c-3.187-4.01-6.042-8.341-8.506-13.043
				c-3.488-6.655-5.975-13.57-7.517-20.566c24.203,29.866,66.88,39.562,102.236,21.03c0.309-0.163,0.613-0.322,0.914-0.488
				c-10.622-6.973-19.803-16.505-26.451-28.269c23.348,12.722,52.436,13.898,77.753,0.627c13.374-7.01,24.024-17.18,31.508-29.11
				c-63.013-12.848-110.96-48.9-141.123-89.432c-9.033,21.417-16.096,34.659-42.038,67.581
				C332.571,958.213,313.496,974.678,281.522,990.265z"/>
		</g>
	</g>
</g>
<g>
	<g>
		<path fill="#BFBFBF" d="M454.183,1293.333c-14.773,6.554-30.655,10.98-47.318,12.972c17.007-10.195,30.072-26.341,36.224-45.581
			c-15.92,9.443-33.552,16.298-52.319,19.993c-15.027-16.013-36.44-26.017-60.137-26.017c-45.5,0-82.39,36.887-82.39,82.386
			c0,6.458,0.729,12.747,2.133,18.777c9.542,36.013,6.734,62.592-4.112,79.786c-16.465,26.103-31.64,41.482-71.687,74.272
			c-28.197,22.099-63.722,35.271-102.322,35.271c-6.65,0-13.209-0.391-19.654-1.152c36.461,23.376,79.769,37.018,126.294,37.018
			c151.543,0,234.416-125.542,234.416-234.417c0-3.572-0.082-7.124-0.24-10.658C429.171,1324.364,443.138,1309.855,454.183,1293.333
			"/>
	</g>
	<g>
		<g>
			<path fill="#BFBFBF" d="M281.756,1558.658c16.915,27.784,50.378,43.785,84.235,37.876c-3.187-4.01-6.042-8.341-8.506-13.043
				c-3.488-6.656-5.975-13.57-7.517-20.567c24.203,29.867,66.88,39.562,102.236,21.03c0.309-0.163,0.613-0.322,0.914-0.488
				c-10.622-6.973-19.803-16.504-26.451-28.269c23.349,12.723,52.436,13.898,77.753,0.627c13.374-7.01,24.024-17.179,31.508-29.11
				c-63.013-12.849-110.959-48.901-141.122-89.433c-9.033,21.417-16.096,34.659-42.038,67.581
				C332.806,1526.606,313.731,1543.071,281.756,1558.658z"/>
		</g>
	</g>
</g>
<g>
	<g>
		<path fill="#BFBFBF" d="M454.183,1859.639c-14.773,6.554-30.655,10.981-47.317,12.973c17.006-10.196,30.072-26.342,36.224-45.582
			c-15.92,9.443-33.552,16.298-52.319,19.993c-15.027-16.013-36.44-26.017-60.137-26.017c-45.5,0-82.39,36.888-82.39,82.387
			c0,6.458,0.729,12.746,2.133,18.777c9.542,36.013,6.734,62.591-4.111,79.786c-16.465,26.103-31.64,41.482-71.687,74.272
			c-28.197,22.1-63.722,35.271-102.322,35.271c-6.65,0-13.209-0.392-19.654-1.152c36.46,23.375,79.768,37.018,126.294,37.018
			c151.543,0,234.416-125.542,234.416-234.417c0-3.572-0.082-7.124-0.24-10.658C429.172,1890.671,443.138,1876.163,454.183,1859.639
			"/>
	</g>
	<g opacity="0.25">
		<g>
			<path fill="#BFBFBF" d="M246.265,2001.956c10.846-17.195,13.653-43.772,4.112-79.787
				c-68.473-3.435-129.183-36.236-169.816-86.083c-7.092,12.168-11.156,26.322-11.156,41.421c0,28.584,14.545,53.802,36.653,68.576
				c-13.506-0.428-26.21-4.134-37.318-10.304c-0.008,0.343-0.008,0.687-0.008,1.036c0,39.917,28.399,73.216,66.089,80.787
				c-6.912,1.882-14.191,2.891-21.705,2.891c-5.309,0-10.471-0.518-15.502-1.478c10.485,32.73,40.912,56.552,76.964,57.214
				C214.625,2043.437,229.8,2028.059,246.265,2001.956z"/>
		</g>
	</g>
	<g opacity="0.55">
		<g>
			<path fill="#BFBFBF" d="M281.757,2124.965c16.915,27.785,50.377,43.785,84.235,37.876c-3.187-4.01-6.041-8.341-8.506-13.043
				c-3.488-6.656-5.975-13.57-7.517-20.567c24.203,29.867,66.88,39.562,102.235,21.03c0.309-0.163,0.613-0.322,0.914-0.488
				c-10.622-6.974-19.803-16.505-26.451-28.268c23.348,12.722,52.436,13.897,77.753,0.627c13.374-7.01,24.024-17.18,31.508-29.11
				c-63.014-12.848-110.96-48.901-141.123-89.433c-9.033,21.418-16.096,34.659-42.038,67.581
				C332.806,2092.914,313.731,2109.379,281.757,2124.965z"/>
		</g>
	</g>
</g>
</svg>
